<svg width="279" height="86" viewBox="0 0 279 86" fill="none" xmlns="http://www.w3.org/2000/svg">
<path d="M111.713 1.42911L97.5339 84.6379H120.211L134.402 1.42911H111.713Z" fill="white"/>
<path d="M78.5193 1.52354L56.3085 58.2695L53.9405 49.7013C49.5601 39.3775 37.1249 24.5509 22.5258 15.207L42.8351 84.5982L66.8307 84.5573L102.544 1.50604L78.5193 1.52354Z" fill="white"/>
<path d="M45.3314 7.47777C44.0133 2.40919 40.1929 0.898525 35.4509 0.717712H0.291633L0 2.37419C27.361 9.01176 45.4656 25.0049 52.9781 44.2352L45.3314 7.47777Z" fill="white"/>
<path d="M180.364 17.3813C187.783 17.2647 193.16 18.8862 197.337 20.566L199.384 21.5284L202.452 3.49376C197.961 1.80812 190.921 0 182.137 0C159.728 0 143.933 11.2862 143.81 27.4602C143.664 39.4113 155.062 46.0839 163.671 50.0676C172.507 54.1504 175.47 56.746 175.429 60.3914C175.359 65.9616 168.383 68.5163 161.868 68.5163C152.787 68.5163 147.963 67.2623 140.515 64.1593L137.593 62.8294L134.402 81.4531C139.71 83.7804 149.503 85.781 159.669 85.886C183.507 85.886 198.999 74.7339 199.162 57.4517C199.261 47.997 193.213 40.782 180.107 34.8618C172.175 31.0006 167.322 28.4342 167.368 24.538C167.368 21.0792 171.486 17.3813 180.364 17.3813Z" fill="white"/>
<path d="M260.65 1.52255H243.129C237.687 1.52255 233.639 3.00405 231.248 8.42843L197.576 84.6847H221.391C221.391 84.6847 225.275 74.4308 226.156 72.1853C228.763 72.1853 251.901 72.2203 255.197 72.2203C255.874 75.1249 257.962 84.6847 257.962 84.6847H279L260.65 1.52255ZM232.683 55.1539C234.549 50.3769 241.718 31.8991 241.718 31.8991C241.595 32.1265 243.567 27.0871 244.739 23.955L246.267 31.1291C246.267 31.1291 250.612 50.9952 251.522 55.1539H232.683Z" fill="white"/>
</svg>
